<svg width="64" height="64" viewBox="0 0 512 512" fill="none" xmlns="http://www.w3.org/2000/svg">
  <defs>
    <linearGradient id="g1" x1="70" y1="430" x2="390" y2="90" gradientUnits="userSpaceOnUse">
      <stop stop-color="#0D6B3B"/>
      <stop offset="0.62" stop-color="#15954E"/>
      <stop offset="1" stop-color="#69D984"/>
    </linearGradient>
    <radialGradient id="glow" cx="0" cy="0" r="1" gradientUnits="userSpaceOnUse" gradientTransform="translate(256 78) rotate(90) scale(56)">
      <stop stop-color="#FFF3A6"/>
      <stop offset="1" stop-color="#FFF3A6" stop-opacity="0"/>
    </radialGradient>
  </defs>
  <g transform="translate(-64 -64) scale(1.25)">
    <path d="M256 489c-25-27-75-42-162-42 58-47 112-69 162-72 50 3 104 25 162 72-87 0-137 15-162 42z" fill="url(#g1)"/>
    <path d="M256 406c-30-41-35-84-8-136 27-52 26-112-2-176 49 42 86 112 48 225-17 50-17 83-38 87z" fill="url(#g1)"/>
    <circle cx="256" cy="205" r="29" fill="#2AA65F"/>
    <path d="M256 56l10 21 23 10-23 10-10 23-10-23-23-10 23-10 10-21z" fill="url(#glow)"/>
  </g>
</svg>
